<svg xmlns="http://www.w3.org/2000/svg" viewBox="0 0 1282 1227" width="1282" height="1227">
  <path d="M942.30,1008.38 C946.82,1006.09 948.94,1004.04 951.05,999.90 C954.45,993.23 954.45,987.78 951.03,971.50 C945.74,946.29 941.14,922.38 937.94,903.54 C933.52,877.46 933.89,878.00 909.50,862.08 C896.40,853.53 888.59,846.07 884.68,838.36 C880.04,829.20 878.92,820.82 878.30,790.75 C877.98,775.49 878.08,763.00 878.52,763.00 C878.95,763.00 881.80,764.18 884.84,765.62 C918.41,781.50 954.34,776.77 980.19,753.07 C1013.30,722.71 1022.22,667.23 1001.87,618.34 C994.66,601.03 977.03,579.51 961.58,569.18 C950.92,562.05 940.77,558.52 937.40,560.77 C936.17,561.59 934.00,565.40 934.00,566.74 C934.00,567.22 936.56,571.63 939.68,576.55 C946.02,586.54 952.17,599.97 954.41,608.72 C964.02,646.23 956.56,684.54 935.64,705.08 C928.84,711.77 916.81,717.69 907.50,718.95 C895.19,720.61 879.85,716.63 873.67,710.17 C872.22,708.66 868.56,701.87 865.54,695.08 C849.66,659.44 835.30,639.78 795.00,598.53 C774.89,577.95 769.72,572.07 766.12,565.70 C760.05,554.95 756.40,543.60 754.46,529.50 C753.05,519.26 752.98,515.42 753.95,503.32 C755.79,480.51 760.13,465.46 772.22,440.00 C786.04,410.91 790.47,395.15 791.68,370.75 C792.02,363.74 792.73,358.00 793.25,358.00 C793.77,358.00 795.47,358.91 797.03,360.02 C801.24,363.02 807.63,365.00 813.07,365.00 C819.65,365.00 823.46,361.82 823.44,356.36 C823.43,351.74 812.06,322.62 803.98,306.50 C796.49,291.54 771.83,253.95 764.98,247.03 C758.64,240.63 747.26,234.31 736.19,231.04 C707.87,222.67 665.60,225.57 641.98,237.50 C633.91,241.57 628.87,245.27 619.89,253.66 C607.43,265.32 603.49,266.50 563.85,270.50 C543.00,272.60 537.70,273.45 533.46,275.39 C524.01,279.71 521.16,288.79 524.36,304.28 C528.82,325.83 541.11,346.10 553.13,351.73 C555.67,352.92 561.97,354.61 567.13,355.49 C596.89,360.56 621.66,365.34 622.75,366.23 C624.88,367.96 624.14,371.78 620.96,375.39 C616.37,380.62 574.89,407.70 561.56,414.18 L557.00,416.40 L552.75,414.33 C542.58,409.37 519.05,390.05 503.63,373.98 C485.99,355.61 478.82,344.09 464.72,311.50 C431.68,235.14 422.44,214.85 417.15,207.11 C414.87,203.76 413.00,200.79 413.00,200.51 C413.00,200.23 569.62,200.00 761.04,200.00 C1100.59,200.00 1109.17,199.95 1112.79,198.11 C1120.08,194.39 1123.00,188.92 1123.00,179.02 C1123.00,175.12 1122.39,170.47 1121.64,168.67 C1119.91,164.54 1114.98,160.36 1110.20,158.98 C1107.59,158.23 967.51,158.00 635.43,158.21 L164.35,158.50 L160.20,161.25 C148.27,169.14 148.64,189.37 160.84,197.11 L165.39,200.00 L256.70,200.00 C306.91,200.00 347.99,200.11 347.98,200.25 C347.98,200.39 347.32,202.30 346.53,204.50 C344.61,209.83 344.62,224.10 346.54,231.54 C349.37,242.46 354.58,248.26 367.27,254.63 C379.87,260.96 383.19,264.36 389.55,277.45 C394.80,288.25 406.06,321.01 413.64,347.50 C415.68,354.65 420.25,367.70 423.78,376.50 C431.61,396.00 435.97,408.58 440.58,425.00 C449.00,454.97 457.08,464.22 496.75,489.34 C499.09,490.82 501.00,492.62 501.00,493.34 C501.00,494.30 491.85,508.96 489.47,511.81 C489.05,512.31 436.68,485.89 420.59,477.05 C387.73,459.00 381.35,456.57 367.00,456.62 C354.88,456.67 349.09,458.63 330.50,468.95 C322.80,473.23 309.68,480.17 301.35,484.38 C288.09,491.08 285.46,492.83 280.20,498.45 C270.91,508.37 267.39,519.94 270.44,530.44 C272.47,537.43 277.76,543.03 284.61,545.44 C295.50,549.27 319.53,548.30 328.66,543.67 C331.32,542.32 339.12,536.15 346.00,529.96 C359.44,517.85 363.41,515.48 368.60,516.45 C377.96,518.21 435.42,566.80 471.50,603.48 C480.30,612.43 489.04,620.53 490.91,621.48 C499.06,625.63 510.59,624.33 525.39,617.58 C535.81,612.84 536.48,612.90 538.48,618.94 C542.07,629.74 553.25,642.73 566.91,651.96 C575.89,658.03 594.30,666.58 616.07,674.79 C643.65,685.19 656.39,692.25 660.09,699.18 C661.76,702.28 659.79,703.96 649.28,708.43 C629.87,716.68 615.68,726.19 603.37,739.21 C585.45,758.16 580.08,778.38 586.39,803.12 C590.06,817.48 598.29,835.15 610.28,854.39 C616.07,863.69 618.50,869.07 619.45,874.70 C620.93,883.44 611.99,900.89 599.53,913.57 C590.68,922.59 587.23,924.03 572.06,925.03 C557.46,926.00 550.54,928.13 543.25,933.90 C533.56,941.57 524.58,956.40 524.53,964.84 C524.49,970.21 527.85,973.56 534.24,974.51 C536.59,974.87 552.69,975.01 570.01,974.83 C601.48,974.50 601.50,974.50 607.00,971.91 C610.02,970.49 616.13,965.99 620.56,961.91 C632.65,950.81 658.90,927.80 672.83,916.11 C685.99,905.06 690.39,899.97 692.03,893.88 C693.29,889.20 692.74,886.80 687.90,875.96 C678.66,855.28 678.79,841.15 688.32,831.63 C693.08,826.87 736.84,801.41 738.05,802.70 C738.46,803.14 740.61,807.78 742.82,813.02 C750.48,831.14 758.53,843.39 770.14,854.61 C783.88,867.88 796.82,874.79 829.21,886.14 C871.78,901.06 883.05,911.04 890.51,940.46 C894.52,956.23 894.60,956.02 882.10,962.60 C868.66,969.68 859.74,979.75 855.84,992.25 C853.43,999.97 854.03,1004.01 858.11,1007.44 L861.15,1010.00 L900.13,1010.00 C934.07,1010.00 939.51,1009.79 942.30,1008.38 Z" fill="currentColor" fill-rule="evenodd"/>
</svg>
